<svg xmlns="http://www.w3.org/2000/svg" width="28.235" height="40.062" viewBox="0 0 28.235 40.062"><g transform="translate(-159.885 -52)"><g transform="translate(162.311 54.817)" fill="#fff"><path d="M16.949,28h0Z" stroke="none"/><path d="M -3.814697265625e-06 28 L 16.94915580749512 28 L -3.814697265625e-06 28 Z" stroke="none" fill="#707070"/></g><g transform="translate(163.852 52)"><g transform="translate(0.148)" fill="none"><path d="M2,11.214A1.994,1.994,0,0,1,1.1,11H0V8.285a2,2,0,0,1,2-2H4.118v-3.4a2.883,2.883,0,0,1,5.765,0v3.4H12a2,2,0,0,1,2,2V11H12.9a1.992,1.992,0,0,1-.9.214Z" stroke="none"/><path d="M 12.00059986114502 10.2140007019043 C 12.15952014923096 10.2140007019043 12.31099033355713 10.17815017700195 12.45081043243408 10.10743045806885 L 12.66363048553467 9.999800682067871 L 12.90212059020996 9.999800682067871 L 13.00040054321289 9.999800682067871 L 13.00040054321289 8.6427001953125 L 13.00040054321289 8.285400390625 C 13.00040054321289 7.734110355377197 12.55189037322998 7.285600185394287 12.00059986114502 7.285600185394287 L 9.882900238037109 7.285600185394287 L 8.882900238037109 7.285600185394287 L 8.882900238037109 6.285600185394287 L 8.882900238037109 2.882700443267822 C 8.882900238037109 1.844580292701721 8.038320541381836 1.000000357627869 7.000200271606445 1.000000357627869 C 5.962080478668213 1.000000357627869 5.117500305175781 1.844580292701721 5.117500305175781 2.882700443267822 L 5.117500305175781 6.285600185394287 L 5.117500305175781 7.285600185394287 L 4.117500305175781 7.285600185394287 L 2.000700235366821 7.285600185394287 C 1.448910236358643 7.285600185394287 1.000000238418579 7.734110355377197 1.000000238418579 8.285400390625 L 1.000000238418579 9.214200019836426 L 1.000000238418579 9.999800682067871 L 1.098580241203308 9.999800682067871 L 1.336960315704346 9.999800682067871 L 1.549700260162354 10.10734081268311 C 1.689720273017883 10.17811012268066 1.841460227966309 10.2140007019043 2.000700235366821 10.2140007019043 L 12.00059986114502 10.2140007019043 M 12.00059986114502 11.2140007019043 L 2.000700235366821 11.2140007019043 C 1.676100254058838 11.2140007019043 1.369630217552185 11.13681030273438 1.098580241203308 10.99980068206787 L 2.716064386731887e-07 10.99980068206787 L 2.716064386731887e-07 9.214200019836426 L 2.716064386731887e-07 8.285400390625 C 2.716064386731887e-07 7.181100368499756 0.8955002427101135 6.285600185394287 2.000700235366821 6.285600185394287 L 4.117500305175781 6.285600185394287 L 4.117500305175781 2.882700443267822 C 4.117500305175781 1.290600299835205 5.408100128173828 3.50952149119621e-07 7.000200271606445 3.50952149119621e-07 C 8.592300415039063 3.50952149119621e-07 9.882900238037109 1.290600299835205 9.882900238037109 2.882700443267822 L 9.882900238037109 6.285600185394287 L 12.00059986114502 6.285600185394287 C 13.10490036010742 6.285600185394287 14.00040054321289 7.181100368499756 14.00040054321289 8.285400390625 L 14.00040054321289 8.6427001953125 L 14.00040054321289 10.99980068206787 L 12.90212059020996 10.99980068206787 C 12.63121032714844 11.13681030273438 12.32494068145752 11.2140007019043 12.00059986114502 11.2140007019043 Z" stroke="none" fill="#707070"/></g><g transform="translate(5.462 1.156)" fill="none" stroke="#707070" stroke-width="1"><circle cx="1.541" cy="1.541" r="1.541" stroke="none"/><circle cx="1.541" cy="1.541" r="1.041" fill="none"/></g></g><g transform="translate(163.991 65.613)"><path d="M0-.2s1.363-1.994,2.259,0,2.372,0,2.372,0" transform="translate(0 1.086)" fill="none" stroke="#707070" stroke-width="1"/><path d="M.047-.111S1.383-2.189,2.28-.2s2.372,0,2.372,0" transform="translate(4.529 1.082)" fill="none" stroke="#707070" stroke-width="1"/><path d="M.047-.111S1.383-2.189,2.28-.2s2.372,0,2.372,0" transform="translate(9.077 1.082)" fill="none" stroke="#707070" stroke-width="1"/></g><g transform="translate(163.991 69.465)"><path d="M0-.2s1.363-1.994,2.259,0,2.372,0,2.372,0" transform="translate(0 1.086)" fill="none" stroke="#707070" stroke-width="1"/><path d="M.047-.111S1.383-2.189,2.28-.2s2.372,0,2.372,0" transform="translate(4.529 1.082)" fill="none" stroke="#707070" stroke-width="1"/><path d="M.047-.111S1.383-2.189,2.28-.2s2.372,0,2.372,0" transform="translate(9.077 1.082)" fill="none" stroke="#707070" stroke-width="1"/></g><g transform="translate(163.991 73.317)"><path d="M0-.2s1.363-1.994,2.259,0,2.372,0,2.372,0" transform="translate(0 1.086)" fill="none" stroke="#707070" stroke-width="1"/><path d="M.047-.111S1.383-2.189,2.28-.2s2.372,0,2.372,0" transform="translate(4.529 1.082)" fill="none" stroke="#707070" stroke-width="1"/><path d="M.047-.111S1.383-2.189,2.28-.2s2.372,0,2.372,0" transform="translate(9.077 1.082)" fill="none" stroke="#707070" stroke-width="1"/></g><g transform="translate(163.991 77.169)"><path d="M0-.2s1.363-1.994,2.259,0,2.372,0,2.372,0" transform="translate(0 1.086)" fill="none" stroke="#707070" stroke-width="1"/><path d="M.047-.111S1.383-2.189,2.28-.2s2.372,0,2.372,0" transform="translate(4.529 1.082)" fill="none" stroke="#707070" stroke-width="1"/><path d="M.047-.111S1.237-2.189,2.035-.2s2.112,0,2.112,0" transform="translate(9.077 1.082)" fill="none" stroke="#707070" stroke-width="1"/></g><path d="M8.475,16.95a8.475,8.475,0,1,1,5.992-2.482A8.485,8.485,0,0,1,8.475,16.95ZM.77,6.548V10.4H6.549v5.778H10.4V10.4h5.779V6.548H10.4V.77H6.549V6.548Z" transform="translate(171.171 75.112)" fill="#707070"/><line x1="11.556" transform="translate(160 84.743)" fill="none" stroke="#707070" stroke-width="1"/><line y1="27.735" transform="translate(160.385 57.008)" fill="none" stroke="#707070" stroke-width="1"/><line x1="8.475" transform="translate(160 57.008)" fill="none" stroke="#707070" stroke-width="1"/><line x2="8.475" transform="translate(173.097 57.008)" fill="none" stroke="#707070" stroke-width="1"/><line y1="18.49" transform="translate(181.186 57.008)" fill="none" stroke="#707070" stroke-width="1"/></g></svg>