<svg xmlns="http://www.w3.org/2000/svg" width="50" height="52" viewBox="0 0 50 52"><path d="M560,161a24.021,24.021,0,0,1-9.731-2.043,24.888,24.888,0,0,1-7.947-5.572,25.994,25.994,0,0,1-5.358-8.264,27.048,27.048,0,0,1,0-20.241,25.994,25.994,0,0,1,5.358-8.264,24.887,24.887,0,0,1,7.947-5.572,24.194,24.194,0,0,1,19.462,0,24.887,24.887,0,0,1,7.947,5.572,25.994,25.994,0,0,1,5.358,8.264,27.048,27.048,0,0,1,0,20.241,25.994,25.994,0,0,1-5.358,8.264,24.888,24.888,0,0,1-7.947,5.572A24.021,24.021,0,0,1,560,161Zm.5-48.5h0l-20,30h15v15h10v-15h15l-20-30Z" transform="translate(-535 -109)" fill="#707070"/></svg>